<svg width="900" height="380" xmlns="http://www.w3.org/2000/svg"><g fill="none" fill-rule="evenodd"><path d="M429 339H325c-10.935 0-20-8.951-20-20 0-11.047 9.06-20 20-20h104c10.933 0 20 8.951 20 20 0 11.047-9.063 20-20 20m157-80c10.727 0 19.76 9.026 20 20-.24 11.305-9.302 20.333-20 20h-5c-11.093.333-20.112 9.361-20 21-.112 10.641 8.925 19.667 20 20h182c10.952-.333 20 8.692 20 20 0 10.972-9.06 20-20 20H200c-11.47 0-20.516-9.026-21-20 .484-11.305 9.541-20.333 21-20h6c11.578-.333 20.599-9.361 21-20-.401-11.641-9.44-20.667-21-21H20c-10.958.333-20-8.692-20-20 0-10.972 9.03-20 20-20h155c11.168 0 20.19-9.028 20-20 .19-11.308-8.85-20.333-20-20h-4c-11.645-.338-20.682-9.361-21-20 .318-11.634 9.346-20.662 21-21h24c11.36.333 20.381-8.695 20-20 .381-10.974-8.658-20-20-20h-60c-11.533 0-20.579-9.026-21-20 .421-11.305 9.478-20.333 21-20h150c11.102-.333 20.123-9.361 20-20 .123-11.641-8.916-20.667-20-21h-34c-10.877.333-19.914-8.692-20-20 .086-10.972 9.105-20 20-20h195c11.62 0 20.659 9.026 21 20-.341 11.305-9.362 20.333-21 20h-20c-10.898.333-19.917 9.361-20 21 .083 10.641 9.12 19.667 20 20h272c10.889-.333 19.937 8.692 20 20-.063 10.972-9.123 20-20 20h-1c-10.935.515-19.447 9.346-19 20-.447 11.308 8.59 20.333 20 20h65c10.956.333 20 9.359 20 21 0 10.639-9.035 19.667-20 20H536c-10.964-.333-19.983 8.695-20 20 .017 10.974 9.054 20 20 20h50zm103 20c0-11.047 9.064-20 20-20h171c10.963 0 20 8.951 20 20 0 11.047-9.066 20-20 20H709c-10.965 0-20-8.951-20-20z" fill="#FCF6DD"/><path d="M384 254l52 57M404 225l53 87M446 229l22 73M488 196l-8 104M515 215l-17 77" stroke="#FFC439" stroke-width="3" stroke-linecap="round" stroke-linejoin="round" stroke-dasharray="8,8"/><path fill="#FFD46D" d="M515 340l-65 21-13-41 65-21z"/><path stroke="#FFC439" stroke-width="1.017" d="M515 340l-65 21-13-41 65-21z"/><path fill="#FFD46D" d="M508 301l-76 24-4-13 76-24z"/><path stroke="#FFC439" d="M508 301l-76 24-4-13 76-24z"/><path d="M535 97c-6.753-42.207-65.888-107.285-144-90 21.255 16.96 64.164 55.15 77 93 15.53 43.598 13.347 70.427 10 101 2.907-.302 6.558-.39 11 0 10.847 2.33 13.088 2.33 27 18 6.258-15.67 25.308-77.228 19-122" fill="#FFE2A2"/><path d="M359 136c-7.306-28.35-3.178-91.72-1-117-23.418 12.882-37.95 31.184-49 50-17.558 31.148-16.996 67.42-12 84 9.035 28.935 29.241 60.306 86 104 1.867-8.244 3.858-30.25 25-36 1.846-.266 3.449-.571 5-1-30.794-23.576-45.609-49.678-54-84" fill="#FFC439"/><path d="M469 101c-13.243-38.49-56.266-76.787-78-94-4.329 1.04-9.144 2.368-14 4-6.923 2.48-13.188 5.347-19 9-1.98 24.858-6.112 88.341 1 117 8.599 34.125 23.426 60.274 54 84 23.87-3.129 34.82 15.842 36 19-.126 0 1.69-33.97 29-38 4.006-30.911 6.194-57.815-9-101" fill="#FFD46D"/><path d="M437 64c-.96-4.36-4.073-12.34-11-16-4.723-2.123-10.165-2.627-14-3-1.876.373-3.587.513-5 1 1.327-3.41 2.875-9.458-1-13-2.915-3.196-7.99-7.223-11-10 3.924.134 10.716-.88 15-4 5.736-3.507 8.365-11.739 9-16 3.847 4.915 12.519 16.145 20 16 7.02.145 18.96-1.132 24-2-2.118 3.607-5.86 10.3-2 17 2.42 5.766 6.905 10.464 10 13-3.02-.243-7.201-.82-11-1-4.714.18-8.09.91-10 2-5.378 3.732-10.358 11.795-13 16" fill="#FBFFFF"/><path d="M419 0c-.081 0-2.324 13.4-9 18-6.784 4.333-18 4.333-18 4 0 .333 8.973 7.033 13 12 4.946 3.967.46 12.9 0 13 .46-.1 3.264-.658 7-1 4.115.342 9.162.9 14 3 8.622 4.6 10.865 18 11 18-.135 0 6.595-13.4 13-18 2.568-1.356 6.058-1.852 10-2 7.023.148 15 2.133 15 2 0 .133-8.973-6.567-13-15-4.946-9.433 4.027-18.367 4-18 .027-.367-17.919 1.867-27 2-8.865-.133-20.081-18-20-18m1 5c4.237 5.669 12.066 14.766 19 15 6.428-.234 16.334-1.213 22-2-1.978 4.026-4.234 10.045-1 16 2.065 4.606 5.22 8.431 8 11-2.46-.032-5.234-.29-8 0-4.733-.29-8.227.487-11 2-4.131 3.071-8.493 9.487-11 14-1.854-4.672-5.13-11.05-11-14-4.223-2.077-9.112-3.1-15-3-.933-.1-2.065-.049-3 0 .99-3.517 1.663-8.834-2-12-2.34-2.812-6.05-5.872-9-8 4.03-.76 9.312-1.967 13-5 4.99-2.728 7.683-9.346 9-14" fill="#FFC439"/><path d="M617 28l13 10 52-28-65 18zm27 20l11 9 29-46-46 33-3 12 9-8zm-14 14l6-19 33-23-39 20-18-13 76-21-33 55-11-10-14 11z" fill="#FFD46D"/><path d="M173.5 14S175 34 192 34c-7 0-18.5 2-18.5 19 0-11-3.5-19.5-18.5-20 15 .5 18.5-19 18.5-19zM140.5 334s1.5 20 18.5 20c-7 0-18.5 2-18.5 19 0-11-4.5-20-18.5-20 18.5 1 18.5-19 18.5-19zM803.5 314s1.5 20 18.5 20c-7 0-18.5 2-18.5 19 0-11-5.5-20-18.5-20 18.5 1 18.5-19 18.5-19z" stroke="#FFC439" stroke-width="2" stroke-linecap="round" stroke-linejoin="round"/></g></svg>