<svg width="900" height="367" xmlns="http://www.w3.org/2000/svg" xmlns:xlink="http://www.w3.org/1999/xlink"><defs><path d="M383 89c-8.57 12.808-13 22.56-13 36 0 11.083 12.986 17.77 25 18 .472-.23 33.134 2 53 2 20.38 0 50.803-2.23 51-2 13.08-.23 24.494-3.794 28-16 1.75-8.752-3.79-27.653-16-40-13.552-13.34-33.675-17.798-62-19-1.09.029-2.587 0-4 0-22.923 0-51.102 6.635-62 21z" id="a"/></defs><g transform="translate(0 1)" fill="none" fill-rule="evenodd"><path d="M429 325H325c-10.935 0-20-8.951-20-20 0-11.047 9.06-20 20-20h104c10.933 0 20 8.951 20 20 0 11.047-9.063 20-20 20m157-80c10.727 0 19.76 9.026 20 20-.24 11.305-9.302 20.333-20 20h-5c-11.093.333-20.112 9.361-20 21-.112 10.641 8.925 19.667 20 20h182c10.952-.333 20 8.692 20 20 0 10.972-9.06 20-20 20H200c-11.47 0-20.516-9.026-21-20 .484-11.305 9.541-20.333 21-20h6c11.578-.333 20.599-9.361 21-20-.401-11.641-9.44-20.667-21-21H20c-10.958.333-20-8.692-20-20 0-10.972 9.03-20 20-20h155c11.168 0 20.19-9.028 20-20 .19-11.308-8.85-20.333-20-20h-4c-11.645-.338-20.682-9.361-21-20 .318-11.634 9.346-20.662 21-21h24c11.36.333 20.381-8.695 20-20 .381-10.974-8.658-20-20-20h-60c-11.533 0-20.579-9.026-21-20 .421-11.305 9.478-20.333 21-20h150c11.102-.333 20.123-9.361 20-20 .123-11.641-8.916-20.667-20-21h-34c-10.877.333-19.914-8.692-20-20 .086-10.972 9.105-20 20-20h195c11.62 0 20.659 9.026 21 20-.341 11.305-9.362 20.333-21 20h-20c-10.898.333-19.917 9.361-20 21 .083 10.641 9.12 19.667 20 20h272c10.889-.333 19.937 8.692 20 20-.063 10.972-9.123 20-20 20h-1c-10.935.515-19.447 9.346-19 20-.447 11.308 8.59 20.333 20 20h65c10.956.333 20 9.359 20 21 0 10.639-9.035 19.667-20 20H536c-10.964-.333-19.983 8.695-20 20 .017 10.974 9.054 20 20 20h50zm103 20c0-11.047 9.064-20 20-20h171c10.963 0 20 8.951 20 20 0 11.047-9.066 20-20 20H709c-10.965 0-20-8.951-20-20z" fill="#EDE3FE"/><path d="M173.5 0S175 20 192 20c-7 0-18.5 2-18.5 19 0-11-3.5-19.5-18.5-20 15 .5 18.5-19 18.5-19zM140.5 320s1.5 20 18.5 20c-7 0-18.5 2-18.5 19 0-11-4.5-20-18.5-20 18.5 1 18.5-19 18.5-19zM803.5 300s1.5 20 18.5 20c-7 0-18.5 2-18.5 19 0-11-5.5-20-18.5-20 18.5 1 18.5-19 18.5-19z" stroke="#7E87DA" stroke-width="2" stroke-linecap="round" stroke-linejoin="round"/><path d="M390 200c16.128 12.673 36.228 16 57 16 19.37 0 34.463 0 55-14 1.795-1.188 3.43-2.554 5-4-20.096 2.821-42.35 4.403-66 4-17.704.403-34.91-.526-51-2" fill="#8A99E1"/><path d="M441 203c-87.732-.461-159.021-22.095-161-49 .063.381 0 .758 0 1 0 28.782 72.081 52 161 52 88.917 0 161-23.218 161-52 0-.242-.065-.619 0-1-1.979 26.905-73.27 48.539-161 49" fill="#6875C5"/><path d="M526 111c-24.527-5.218-53.712-8-85-8-25.54 0-49.68 1.854-71 5-53.366 8.299-90 25.317-90 45 0 22.054 45.999 40.76 110 47 15.895 2.079 33.095 3 51 3 23.443 0 45.693-1.569 66-4 55.893-8.18 95-25.667 95-46 0-17.897-30.297-33.589-76-42" fill="#96ADF4"/><path d="M340 159c5.52 0 10-4.03 10-9s-4.48-9-10-9c-5.522 0-10 4.03-10 9s4.478 9 10 9M564 159c5.52 0 10-4.03 10-9s-4.48-9-10-9c-5.522 0-10 4.03-10 9s4.478 9 10 9M452 190c7.508 0 14-5.598 14-12 0-7.405-6.492-13-14-13-8.51 0-15 5.595-15 13 0 6.402 6.49 12 15 12" fill="#FBE839"/><path d="M511 177c5.917.11 10.91-3.827 11-9 .085-4.766-4.766-8.885-11-9-5.915-.108-10.91 3.829-11 9-.085 4.768 4.766 8.885 11 9M385 177c5.917.11 10.91-3.827 11-9 .085-4.766-4.766-8.885-11-9-5.915-.108-10.91 3.829-11 9-.085 4.768 4.766 8.885 11 9" fill="#5C7EDD"/><path d="M576 351c-1.082 0-1.902-.505-2-1l-56-130c-.304-1.015.214-2.33 1-3 1.46-.304 2.772.212 3 1l56 130c.304 1.015-.218 2.33-1 3-.631-.058-.927 0-1 0M471 309c-1.387 0-2.356-.78-3-2l-11-67c-.178-1.604.665-2.765 2-3 1.157-.179 2.33.656 3 2l11 67c.175 1.605-.664 2.766-2 3-.04-.009-.164 0 0 0M393 341c.076 0-.094-.018 0 0-1.469-.332-2.222-1.533-2-3l24-101c-.144-1.468 1.06-2.222 2-2 1.466.336 2.219 1.536 2 3l-24 101c.184 1.304-.739 2-2 2M341 284c-.08 0-.413-.071-1 0-.847-.757-1.317-2.086-1-3l32-65c.26-.85 1.608-1.311 3-1 .847.755 1.317 2.086 1 3l-32 65c-.112.537-.915 1-2 1" fill="#7E87DA"/><path d="M789 33c-2.432 0-4 1.57-4 4 0 1.43 1.568 3 4 3 1.427 0 3-1.57 3-3 0-2.43-1.573-4-3-4m0 9c-3.534 0-6-2.466-6-5 0-3.534 2.466-6 6-6 2.534 0 5 2.466 5 6 0 2.534-2.466 5-5 5M765.5 42c-1.383 0-2.5 1.12-2.5 3 0 .88 1.117 2 2.5 2 1.378 0 2.5-1.12 2.5-2 0-1.88-1.122-3-2.5-3m.5 7c-2.984 0-5-2.018-5-4 0-2.982 2.016-5 5-5 1.98 0 4 2.018 4 5 0 1.982-2.02 4-4 4" fill="#96ADF4"/><use fill="#8A9ADB" xlink:href="#a"/><path d="M772 60c5-.497 9.11 3.624 9 9 .11.465.004 1.24 0 2 6.728-.68 12.983-4.397 17-10-1.076-1.333-1.631-2.772-2-4 .369-3.44 2.74-6.056 6-6-.07-1.494 0-2.484 0-3 0-13.428-10.544-24-23-24-13.46 0-24 10.572-24 24 0 6.498 3.1 13.108 8 18 1.66-3.99 5.082-6.497 9-6zm5 14l1-2c.62-.674.868-1.705 1-3-.132-3.594-3.207-6.729-7-7-3.345.271-6.246 2.84-7 6v2l-1-1c-7.073-4.896-11-12.748-11-21 0-14.34 11.437-26 26-26 13.558 0 25 11.66 25 26 0 1.343-.126 2.753 0 4l-1 1h-1c-1.834.23-3.579 2.011-4 4 .421 1.384.949 2.5 2 3l1 1-1 1c-4.442 7.163-12.271 11.727-21 12h-2z" fill="#96ADF4"/><path d="M801 53c-2.318.527-4 2.08-4 4 0 .654.287 1.375 1.333 2 .923-1.892 1.986-3.903 2.667-6zm-2 10l-1-1c-1.139-1.029-2-2.806-2-5 0-3.17 2.863-6 6-6h2v1c-.838 3.765-2.067 6.976-4 10l-1 1zM764.03 66.303c4.055 2.983 8.907 4.775 14.595 5.292-.105-.78.136-1.552.174-1.993.35-4-2.8-7.271-7.436-7.677-3.032-.265-6.252 1.594-7.333 4.378m13.337 8.193c-4.92-.43-9.9-2.602-13.51-6.2l-.997-.088.087-.996c1.143-4.515 5.245-7.572 9.663-7.185 4.936.431 8.604 4.925 8.181 9.75-.144 1.647-.58 2.984-1.344 3.897l-.088.997-.996-.088c-.274-.033-.42-.036-.996-.087" fill="#96ADF4"/></g></svg>