<svg width="900" height="363" xmlns="http://www.w3.org/2000/svg"><g fill="none" fill-rule="evenodd"><path d="M429 322H325c-10.935 0-20-8.951-20-20 0-11.047 9.06-20 20-20h104c10.933 0 20 8.951 20 20 0 11.047-9.063 20-20 20m157-80c10.727 0 19.76 9.026 20 20-.24 11.305-9.302 20.333-20 20h-5c-11.093.333-20.112 9.361-20 21-.112 10.641 8.925 19.667 20 20h182c10.952-.333 20 8.692 20 20 0 10.972-9.06 20-20 20H200c-11.47 0-20.516-9.026-21-20 .484-11.305 9.541-20.333 21-20h6c11.578-.333 20.599-9.361 21-20-.401-11.641-9.44-20.667-21-21H20c-10.958.333-20-8.692-20-20 0-10.972 9.03-20 20-20h155c11.168 0 20.19-9.028 20-20 .19-11.308-8.85-20.333-20-20h-4c-11.645-.338-20.682-9.361-21-20 .318-11.634 9.346-20.662 21-21h24c11.36.333 20.381-8.695 20-20 .381-10.974-8.658-20-20-20h-60c-11.533 0-20.579-9.026-21-20 .421-11.305 9.478-20.333 21-20h150c11.102-.333 20.123-9.361 20-20 .123-11.641-8.916-20.667-20-21h-34c-10.877.333-19.914-8.692-20-20 .086-10.972 9.105-20 20-20h195c11.62 0 20.659 9.026 21 20-.341 11.305-9.362 20.333-21 20h-20c-10.898.333-19.917 9.361-20 21 .083 10.641 9.12 19.667 20 20h272c10.889-.333 19.937 8.692 20 20-.063 10.972-9.123 20-20 20h-1c-10.935.515-19.447 9.346-19 20-.447 11.308 8.59 20.333 20 20h65c10.956.333 20 9.359 20 21 0 10.639-9.035 19.667-20 20H536c-10.964-.333-19.983 8.695-20 20 .017 10.974 9.054 20 20 20h50zm103 20c0-11.047 9.064-20 20-20h171c10.963 0 20 8.951 20 20 0 11.047-9.066 20-20 20H709c-10.965 0-20-8.951-20-20z" fill="#FFE2E2"/><path d="M615 45.25l-.177-.073-11-11-.073-.177V20l.073-.177 11-11L615 8.75h14l.177.073 11 11 .073.177v14l-.073.177-11 11-.177.073h-14zm15.317 1.5l11.433-11.433V18.683L630.317 7.25h-16.634L602.25 18.683v16.634l11.433 11.433h16.634z" stroke="#FC5A58" stroke-width=".5" fill="#FFE2E2"/><path d="M617.385 39.25l-.177-.073-7.385-7.385-.073-.177v-9.23l.073-.177 7.385-7.385.177-.073h9.23l.177.073 7.385 7.385.073.177v9.23l-.073.177-7.385 7.385-.177.073h-9.23zm10.511 1.5l7.854-7.854V21.104l-7.854-7.854h-11.792l-7.854 7.854v11.792l7.854 7.854h11.792z" stroke="#FC5A58" stroke-width=".5" fill="#FFE2E2"/><path fill="#FC5A58" d="M614 28h15v-3h-15z"/><path d="M624.25 88.25h-4.5V47.682h4.5V88.25zm-5-.5h5.5v-40.5h-5.5v40.5z" stroke="#FC5A58" stroke-width=".5" fill="#FFF"/><path d="M626.25 96.25h-9.5v-8.5h9.5v8.5zm-10 .5h10.5v-9.5h-10.5v9.5z" stroke="#FC5A58" stroke-width=".5" fill="#FFE2E2"/><path d="M275 271c-1.136.566-6.29 2.618-7 6-1.595 2.918-1.222 8.68 4 10 8.437 3.422 132.686 34.293 133 34-.314.293 7.461 2.281 16 2 4.036-.208 9.207-1.988 12-3 15.335-6.613 91.077-40.564 96-44 4.577-2.485 6.322-3.47 6-7-.48-4.188-3.804-6.935-12-9-14.172-2.639-133.561-31-134-31 .439 0-111.278 39.977-114 42" fill="#AF2C2E"/><path d="M275 267c-1.136.564-6.29 2.617-7 6-1.595 2.917-1.222 8.68 4 10 8.437 3.421 132.686 34.293 133 34-.314.293 7.461 2.281 16 2 4.036-.208 9.207-1.988 12-3 15.335-6.61 91.077-40.565 96-44 4.577-2.486 6.322-3.47 6-7-.48-4.187-3.804-6.934-12-9-14.172-2.64-133.561-31-134-31 .439 0-111.278 39.976-114 42M431 113c-9.042-26.056-15.7-45.42-16-45 .3-.42-4.736-10-10-10-5.318 0-7.588 6.05-9 9-.91 1.367-7.817 20.15-17 45 6.007 1.63 14.747 2.865 26 3 17.146.152 23.57-1.032 26-2" fill="#FC5A58"/><path d="M403 278c-63.55 1.99-72.84-18.21-74-26 .117.011.106.046 0 0-.401 2.038-1.918 31.332 74 29 67.79-2.355 80.311-13.574 79-24-1.499 9.498-17.504 18.912-79 21" fill="#FC5A58"/><path d="M403 278c-63.55 1.99-72.84-18.21-74-26 .117.011.106.046 0 0-.401 2.038-1.918 31.332 74 29 67.79-2.355 80.311-13.574 79-24-1.499 9.498-17.504 18.912-79 21" fill="#FF807E"/><path d="M403 279c60.687-2.177 76.611-11.721 78-21-.174-1.744-.558-3.066-1-4-1.26-3.19-5.712-15.71-12-33-7.292 3.528-28.47 11.589-64 11-28.797-.497-51.272-7.322-63-12-7.101 18.741-11.748 31.723-12 33 1.036 7.478 10.278 27.956 74 26M403 193c33.579-1.019 48.31-5.636 53-7 4.17 12.433 8.372 24.573 12 35-3.628-10.427-21.598-62.518-26-76-7.567 2.147-19.864 4.6-38 5-20.5-.092-31.266-3.55-36-6-2.65 6.582-8.358 22.46-14 38 1.987 2.268 12.996 11.699 49 11" fill="#FC5A58"/><path d="M456 185c-4.746 2.2-19.526 6.826-53 8-36.341.549-47.387-8.901-49-11-6.272 16.368-12.091 32.553-14 38 12.119 4.593 34.667 11.473 64 12 35.202.568 56.449-7.56 64-11-3.64-10.548-7.856-22.71-12-36M442 145c-3.788-10.73-7.467-21.43-11-31-2.24.617-8.648 1.801-25 2-11.978-.484-20.697-1.722-27-3-3.203 9.69-7.047 20.318-11 31 5.006 2.709 15.764 6.158 36 6 18.372-.15 30.66-2.596 38-5" fill="#FFF"/></g></svg>