<svg width="900" height="363" xmlns="http://www.w3.org/2000/svg" xmlns:xlink="http://www.w3.org/1999/xlink"><defs><path d="M.952 51.694c2.193-.053 4.866-.6 9-2 5.283-2.852 10.857-10.666 18-10 7.543.376 11.93 4.023 16 7 4.322 2.233 7.47 4.316 14 4 7.105.316 9.756-1.767 14-5 4.15-4.062 7.82-6.666 15-6 6.457.376 10.653 4.023 13 7 2.898 2.233 8.666 4.837 13 5l52-30v-21h-164v51z" id="a"/><path d="M.923 26.922l29 24c-.198-.28 8.202 1.302 14-1 5.748-2.966 10.995-10.872 18-10 7.695.182 10.318 3.87 15 7 3.716 2.141 6.865 4.248 14 4 6.512.248 11.236-1.859 15-6 4.634-3.238 8.305-5.872 15-5 6.955.182 11.154 3.87 14 7 2.403 2.141 8.439 4.19 11 5 3.144.21 6.476.356 12-2 6.022-2.912 11.6-10.816 19-10 7.297.238 11.688 3.927 16 7 1.99.881 3.83 2.069 6 3v-49h-198v26z" id="c"/></defs><g fill="none" fill-rule="evenodd"><path d="M429 322H325c-10.935 0-20-8.951-20-20 0-11.047 9.06-20 20-20h104c10.933 0 20 8.951 20 20 0 11.047-9.063 20-20 20m157-80c10.727 0 19.76 9.026 20 20-.24 11.305-9.302 20.333-20 20h-5c-11.093.333-20.112 9.361-20 21-.112 10.641 8.925 19.667 20 20h182c10.952-.333 20 8.692 20 20 0 10.972-9.06 20-20 20H200c-11.47 0-20.516-9.026-21-20 .484-11.305 9.541-20.333 21-20h6c11.578-.333 20.599-9.361 21-20-.401-11.641-9.44-20.667-21-21H20c-10.958.333-20-8.692-20-20 0-10.972 9.03-20 20-20h155c11.168 0 20.19-9.028 20-20 .19-11.308-8.85-20.333-20-20h-4c-11.645-.338-20.682-9.361-21-20 .318-11.634 9.346-20.662 21-21h24c11.36.333 20.381-8.695 20-20 .381-10.974-8.658-20-20-20h-60c-11.533 0-20.579-9.026-21-20 .421-11.305 9.478-20.333 21-20h150c11.102-.333 20.123-9.361 20-20 .123-11.641-8.916-20.667-20-21h-34c-10.877.333-19.914-8.692-20-20 .086-10.972 9.105-20 20-20h195c11.62 0 20.659 9.026 21 20-.341 11.305-9.362 20.333-21 20h-20c-10.898.333-19.917 9.361-20 21 .083 10.641 9.12 19.667 20 20h272c10.889-.333 19.937 8.692 20 20-.063 10.972-9.123 20-20 20h-1c-10.935.515-19.447 9.346-19 20-.447 11.308 8.59 20.333 20 20h65c10.956.333 20 9.359 20 21 0 10.639-9.035 19.667-20 20H536c-10.964-.333-19.983 8.695-20 20 .017 10.974 9.054 20 20 20h50zm103 20c0-11.047 9.064-20 20-20h171c10.963 0 20 8.951 20 20 0 11.047-9.066 20-20 20H709c-10.965 0-20-8.951-20-20z" fill="#DAF2FA"/><path stroke="#EEF0F2" stroke-width=".1" d="M413 222h0z"/><g transform="translate(362.048 220.306)"><mask id="b" fill="#fff"><use xlink:href="#a"/></mask><path fill="#77C2FF" mask="url(#b)" d="M164.952.694l-115 1-49 94z"/></g><g transform="translate(213.077 221.078)"><mask id="d" fill="#fff"><use xlink:href="#c"/></mask><path fill="#6FB3F7" mask="url(#d)" d="M149.923 95.922l49-95-198 17z"/></g><path d="M582 88V71l24 11v7l-24-1zm3-32l18 10v12l-18-8V56zm3-11h12v17l-12-7V45zm17 34V64l-3-1V43h-16v11l-3-2v17l-3-2v23l28 1V81l-3-2z" fill="#91CDF9"/><path d="M594.484 19l9.677 10h-19.355l9.678-10zM600 43h-12V31h12v12zm-14.226 2h16.452V31H609l-14.516-15L579 31h6.774v14z" fill="#91CDF9"/><path d="M243 271c0-.235 8.402 1.292 14-1 5.958-2.803 11.207-10.445 19-10 6.915.575 9.538 4.14 14 7 3.94 2.236 7.09 4.273 14 4 6.747.273 11.474-1.764 16-5 3.876-3.896 7.55-6.445 14-6 7.207.575 11.408 4.14 14 7 2.658 2.236 8.7 4.218 12 5 2.407.203 5.741.346 12-2 5.294-2.747 10.875-10.39 18-10 7.58.629 11.974 4.197 16 7 4.376 2.29 7.529 4.329 14 4 7.181.329 9.837-1.71 14-5 4.238-3.842 7.916-6.39 15-6 6.568.629 10.77 4.197 13 7 3.023 2.29 8.799 4.839 13 5" stroke="#4893ED"/><path d="M701 359v-12c8.906-1.579 15.95-8.376 17-17h13c-1.703 15.255-14.253 27.4-30 29m-37-29h13c1.049 8.624 8.093 15.421 17 17v12c-15.748-1.6-28.297-13.743-30-29m30-37v12c-8.973 1.954-16.05 9.04-18 18h-12c1.601-15.77 14.194-28.35 30-30m4 53c-11.252 0-20-8.746-20-19 0-11.252 8.748-20 20-20 10.252 0 19 8.748 19 20 0 10.254-8.748 19-19 19m33-23h-12c-1.95-8.96-9.025-16.046-18-18v-12c15.809 1.653 28.399 14.23 30 30m-33-32c-20.075 0-36 15.927-36 36 0 19.075 15.925 35 36 35 19.075 0 35-15.925 35-35 0-20.073-15.925-36-35-36M694 52l-1-1c-9.75-11.215-20.3-4.332-21-4l-1-2c.12-.01 12.07-7.81 23 4 .59-.641.96-1.047 1-1 3.473-3.948 6.723-7.562 21-5v2c-13.422-2.114-16.002.758-19 4-.655.808-1.318 1.54-2 2l-1 1zM757 25l-1-1c-9.71-11.171-20.302-4.327-21-4l-1-2c.12-.009 12.068-7.809 23 4 .59-.641.96-1.047 1-1 3.473-3.948 6.718-7.565 21-5v2c-13.413-2.119-16.004.756-19 4-.655.808-1.318 1.54-2 2l-1 1zM413 222l115-1V60z" fill="#91CDF9"/><path fill="#7DC5FF" d="M527 60L412 222l-198 17 177-55z"/><path fill="#8CC8FD" d="M353 116l60 106-72 6z"/><path fill="#A8D5FF" d="M353 116l102 46-42 59z"/></g></svg>