<svg width="92" height="91" xmlns="http://www.w3.org/2000/svg" xmlns:xlink="http://www.w3.org/1999/xlink"><defs><circle id="a" cx="4.583" cy="5" r="4.583"/></defs><g transform="translate(.417 .167)" fill="none" fill-rule="evenodd"><ellipse fill="#E2ECF1" cx="44.583" cy="87.5" rx="43.333" ry="3.333"/><path stroke="#B4BDC1" stroke-width="2" fill="#ECF6FC" stroke-linecap="round" stroke-linejoin="round" d="M6.25 34.167h76.667v40H6.25z"/><path d="M16.25 24.167s-10 8.403-10 10c0 1.403 10 5.833 10 5.833V24.167zM72.917 24.167s10 8.403 10 10c0 1.403-10 5.833-10 5.833V24.167z" fill="#ECF6FC"/><path d="M73.25 9.374L64.376.5h-40.95a7.496 7.496 0 0 0-7.51 7.495v41.51A7.497 7.497 0 0 0 23.422 57h42.325a7.506 7.506 0 0 0 7.504-7.508V9.374z" stroke="#B4BDC1" fill="#FFF"/><path fill="#ECF6FC" d="M26.25 35.833h35.833v5H26.25zM26.25 45h35.833v5H26.25z"/><path fill="#ECF6FC" d="M7.083 35.833L37.917 50 7.083 70.833z"/><rect fill="#FFF" x="9.583" y="42.5" width="1.667" height="15" rx=".833"/><path d="M9.583 59.992c0-.456.37-.825.834-.825.46 0 .833.375.833.825v3.349a.833.833 0 0 1-1.667 0v-3.349z" fill="#FFF"/><path fill="#ECF6FC" d="M82.083 35.833L52.083 50l30 23.333z"/><path d="M65.083 1.207v7.46h7.46l-7.46-7.46z" stroke="#B4BDC1" fill="#ECF6FC"/><path fill="#FFF" d="M73.75 26.667l6.667 7.5v36.666l1.666 1.667V34.167L73.75 25z"/><rect fill="#B4BDC1" x="77.917" y="2.5" width="1" height="6.667" rx=".5"/><rect fill="#B4BDC1" x="80.417" y="2.5" width="1" height="8.333" rx=".5"/><path d="M82.917 2.911a.417.417 0 0 1 .833 0v10.01a.417.417 0 1 1-.833 0V2.912z" fill="#B4BDC1"/><path d="M10.528 80.833c-5.437 0-7.852-5.61-4.205-9.304l34.48-27.913c1.682-1.269 4.625-1.692 6.728 0l34.48 27.913c3.648 3.693 1.228 9.304-4.205 9.304H10.528z" stroke="#B4BDC1" stroke-width="2" fill="#ECF6FC" fill-rule="nonzero"/><path d="M46.751 44.043l34.405 27.495c3.692 3.494 1.244 8.57-4.247 8.46h-.85c5.046-.088 6.556-5.063 2.549-8.46L46.327 44.466c-1.479-.958-2.586-.804-4.244-.804.298-.086 2.545-.888 4.668.381z" fill="#FFF" fill-rule="nonzero"/><g transform="translate(40.833 21.667)"><mask id="b" fill="#fff"><use xlink:href="#a"/></mask><path d="M5.038 10.833c.59-.318 1.57-.227 2.727 0 .666.117 1.818-.108 1.818-.833V7.5c0-.565-1.854-2.324-4.545-2.5-2.89-.19-5.455 1.616-5.455 2.5V10c0 .725 1.151.95 1.819.833 1.157-.227 2.137-.318 3.636 0" fill="#ECF6FC" mask="url(#b)"/></g><circle stroke="#B4BDC1" cx="45.417" cy="26.667" r="4.167"/><path stroke="#B4BDC1" stroke-linecap="round" stroke-linejoin="round" d="M30.417 11.667L37.083 15l-6.666 3.333M60.417 11.667L53.75 15l6.667 3.333"/><path d="M73.829 24.167s2.929 3.333 7.53 8.333c1.592 1.729 2.511 2.083 0 3.333L54.584 49.167M15.169 23.333s-3.377 3.88-7.597 8.621c-1.835 2.061-1.689 2.586 0 3.448 1.688.862 27.011 12.931 27.011 12.931" stroke="#B4BDC1" stroke-width="2" stroke-linecap="round" stroke-linejoin="round"/><ellipse fill="#ECF6FC" cx="1.996" cy="24.757" rx="1.996" ry="2.007"/><ellipse fill="#B4BDC1" cx="7.32" cy="19.404" rx="1.331" ry="1.338"/><path d="M7.917 9.167H1.25c-.525 0-.833-.375-.833-.834 0-.458.308-.833.833-.833h6.667c.525 0 .833.375.833.833 0 .459-.308.834-.833.834" fill="#B4BDC1"/><path d="M5.417 5v6.667c0 .525-.375.833-.834.833-.458 0-.833-.308-.833-.833V5c0-.525.375-.833.833-.833.459 0 .834.308.834.833" fill="#B4BDC1"/><path d="M84.583 25.417h5.834M87.5 28.333V22.5" stroke="#E3E8EA" stroke-linecap="round" stroke-linejoin="round"/></g></svg>